<?xml version="1.0" standalone="no"?>
<!DOCTYPE svg PUBLIC "-//W3C//DTD SVG 20010904//EN"
 "http://www.w3.org/TR/2001/REC-SVG-20010904/DTD/svg10.dtd">
<svg version="1.0" xmlns="http://www.w3.org/2000/svg"
 width="214.000000pt" height="214.000000pt" viewBox="0 0 214.000000 214.000000"
 preserveAspectRatio="xMidYMid meet">
<metadata>
Created by potrace 1.11, written by Peter Selinger 2001-2013
</metadata>
<g transform="translate(0.000000,214.000000) scale(0.100000,-0.100000)"
fill="#000000" stroke="none">
<path d="M969 1634 c-57 -58 -113 -110 -124 -116 -13 -7 -96 -12 -227 -12
-205 -1 -207 -1 -235 -26 -24 -21 -38 -25 -93 -25 l-65 0 -3 -64 -3 -64 -107
-104 c-59 -58 -102 -104 -97 -103 6 1 29 2 53 1 l42 -1 0 -114 c0 -125 -7
-143 -57 -133 -48 9 -53 1 -53 -81 l0 -75 217 8 c270 11 1448 11 1716 0 l197
-8 0 75 c0 81 -5 87 -67 88 -21 0 -21 4 -21 120 l0 120 44 0 c24 0 44 4 44 10
0 5 -51 58 -112 119 -62 60 -147 142 -188 183 l-75 73 -205 1 c-113 1 -212 3
-221 3 -8 1 -58 44 -110 96 -51 53 -106 104 -120 115 l-25 19 -105 -105z m222
-163 c52 -49 115 -109 142 -133 l47 -45 3 -196 c2 -223 9 -207 -88 -207 -81 0
-79 -3 -80 184 0 160 -1 165 -25 191 -38 40 -130 50 -193 20 -53 -25 -55 -36
-56 -242 l-1 -153 -66 0 c-107 0 -102 -10 -102 207 l0 187 100 96 c56 52 119
114 142 137 22 23 51 42 62 42 13 1 56 -32 115 -88z m619 -162 c30 -28 71 -65
91 -84 l36 -33 -3 -138 c-1 -77 -3 -142 -3 -146 -1 -5 -10 -8 -21 -8 -18 0
-20 7 -20 73 l0 72 -117 2 c-120 3 -164 -1 -162 -15 1 -4 1 -35 0 -70 -1 -59
-2 -63 -23 -60 -21 3 -22 7 -22 148 l-1 145 69 60 c38 33 79 70 90 83 11 12
22 22 25 22 3 0 31 -23 61 -51z m-1293 -46 l79 -78 -2 -136 c0 -75 -4 -141 -8
-148 -9 -14 -319 -16 -345 -2 -17 10 -20 73 -13 264 2 39 3 40 96 125 81 73
94 71 193 -25z"/>
<path d="M1029 1458 c0 -2 -1 -26 -3 -55 l-2 -52 53 0 c29 1 53 5 54 10 0 5 1
28 1 52 l1 42 -51 3 c-29 2 -52 2 -53 0z"/>
<path d="M1699 1210 c-6 -91 -4 -96 44 -94 23 0 47 2 54 2 7 1 11 21 10 54
l-2 52 -53 1 c-39 0 -52 -4 -53 -15z"/>
<path d="M309 1152 c-4 -45 -4 -58 4 -69 5 -7 5 -18 1 -25 -4 -6 -8 -29 -9
-50 -1 -33 2 -39 22 -44 13 -4 34 -3 47 0 13 3 44 2 70 -3 31 -6 49 -5 55 3 5
6 9 55 9 108 l1 96 -100 0 c-85 0 -99 -2 -100 -16z m111 -87 c0 -8 -7 -15 -15
-15 -8 0 -15 7 -15 15 0 8 7 15 15 15 8 0 15 -7 15 -15z"/>
</g>
</svg>
